# xmcd
#
# Track frame offsets:
#	150
#	12552
#	24920
#	38432
#	52290
#	66060
#	78560
#	92445
#	104527
#	118487
#	130815
#	142932
#	156382
#	167877
#	179860
#	191522
#	205107
#	217982
#	229882
#	242080
#	255625
#	267747
#	278965
#	290320
#	302485
#	314350
#
# Disc length: 4351 seconds
#
# Revision: 3
# Processed by: cddbd v1.5.2PL0 Copyright (c) Steve Scherf et al.
# Submitted via: audiograbber 1.83.01
#
DISCID=8510fd1a
DTITLE=Various Artist - The King R&B Box Set  [CD1)
DYEAR=1995
DGENRE=Oldies
TTITLE0=Bull Moose Jackson - I Know Who Threw The Whiskey In The Well
TTITLE1=Ravens - Bye, Bye Baby Blues
TTITLE2=Bull Moose Jackson - I Love You, Yes I Do
TTITLE3=Lonnie Johnson - Tomorrow Night
TTITLE4=Bull Moose Jackson - I Want A Bowlegged Woman
TTITLE5=Wynonie Harris - Good Rockin'Tonight
TTITLE6=Roy Brown - Long About Midnight
TTITLE7=Todd Rhodes - Blues For The Red Boy
TTITLE8=Lonnie Johnson - Pleasing You (As Long As I Live)
TTITLE9=Roy Brown - Rockin' At Midnight
TTITLE10=Todd Rhodes - Pot Likker
TTITLE11=Ivory Joe Hunter - Guess Who
TTITLE12=Wynonie Harris - All She Wants To Do Is Rock
TTITLE13=Joe Thomas - Page Boy Shuffle
TTITLE14=Eddie Vinson - Ashes On My Pillow
TTITLE15=Bull Moose Jackson - Why Don't You Haul Off And Love Me
TTITLE16=Ivory Joe Hunter - Jealous Heart
TTITLE17=Wynonie Harris - Sittin' On It All The Time
TTITLE18=Tiny Bradshaw - Well, Oh Well
TTITLE19=Roy Brown - Hard Luck Blues
TTITLE20=Wynonie Harris - Good Morning, Judge
TTITLE21=Mabel Scott - Disgusted
TTITLE22=Dominoes - Sixty Minute Man
TTITLE23=Earl Bostic - Flamingo
TTITLE24=Lucky Millinder - I'm Waiting Just For You
TTITLE25=Wynonie Harris - Bloodshot Eyes
EXTD=
EXTT0=
EXTT1=
EXTT2=
EXTT3=
EXTT4=
EXTT5=
EXTT6=
EXTT7=
EXTT8=
EXTT9=
EXTT10=
EXTT11=
EXTT12=
EXTT13=
EXTT14=
EXTT15=
EXTT16=
EXTT17=
EXTT18=
EXTT19=
EXTT20=
EXTT21=
EXTT22=
EXTT23=
EXTT24=
EXTT25=
PLAYORDER=
